<svg xmlns="http://www.w3.org/2000/svg" xmlns:xlink="http://www.w3.org/1999/xlink"><symbol id="android-logo" viewBox="0 0 47 56">
<path d="M36.8864 19.0617H10.1136C10.1136 19.1718 10.1136 19.282 10.1136 19.3922V38.1955C10.103 39.1078 10.4465 39.99 11.0745 40.6633C11.7025 41.3367 12.5681 41.7508 13.496 41.8219V49.2751C13.5402 50.0122 13.8701 50.7048 14.4181 51.2114C14.9661 51.7179 15.6909 52 16.444 52C17.1972 52 17.9219 51.7179 18.4699 51.2114C19.0179 50.7048 19.3478 50.0122 19.3921 49.2751V41.842H27.6283V49.2751C27.6726 50.0122 28.0025 50.7048 28.5505 51.2114C29.0985 51.7179 29.8232 52 30.5764 52C31.3296 52 32.0543 51.7179 32.6023 51.2114C33.1503 50.7048 33.4802 50.0122 33.5245 49.2751V41.8219C34.4532 41.7509 35.32 41.3371 35.9496 40.664C36.5793 39.991 36.925 39.1088 36.917 38.1955V19.4023C36.9068 19.2921 36.8966 19.1819 36.8864 19.0617Z" fill="#A4C639"/>
<path d="M4.95318 20.7446C5.73371 20.7446 6.48226 21.0486 7.03417 21.5897C7.58609 22.1307 7.89615 22.8646 7.89615 23.6297V36.0317C7.89749 36.4114 7.82236 36.7876 7.67507 37.1388C7.52777 37.49 7.31121 37.8093 7.03779 38.0782C6.76438 38.3472 6.4395 38.5606 6.08177 38.7062C5.72405 38.8518 5.34052 38.9268 4.95318 38.9268C4.16995 38.9268 3.4188 38.6218 2.86497 38.0788C2.31114 37.5359 2 36.7995 2 36.0317V23.6297C2 23.25 2.07646 22.874 2.22499 22.5233C2.37353 22.1726 2.59122 21.8541 2.86558 21.5861C3.13995 21.3181 3.46558 21.1058 3.82382 20.9614C4.18206 20.817 4.56585 20.7433 4.95318 20.7446Z" fill="#A4C639"/>
<path d="M42.057 20.7446C42.8375 20.7446 43.5861 21.0486 44.138 21.5897C44.6899 22.1307 45 22.8646 45 23.6297V36.0317C45.0013 36.4114 44.9262 36.7876 44.7789 37.1388C44.6316 37.49 44.415 37.8093 44.1416 38.0782C43.8682 38.3472 43.5433 38.5606 43.1856 38.7062C42.8279 38.8518 42.4444 38.9268 42.057 38.9268C41.2738 38.9268 40.5226 38.6218 39.9688 38.0788C39.415 37.5359 39.1038 36.7995 39.1038 36.0317V23.6297C39.1038 23.25 39.1803 22.874 39.3288 22.5233C39.4774 22.1726 39.6951 21.8541 39.9694 21.5861C40.2438 21.3181 40.5694 21.1058 40.9277 20.9614C41.2859 20.817 41.6697 20.7433 42.057 20.7446Z" fill="#A4C639"/>
<path d="M10.1749 17.0581H36.7433C36.6757 14.3018 35.5048 11.6823 33.4836 9.76521L36.0485 5.49766C36.0753 5.46066 36.0936 5.41835 36.1019 5.37369C36.1103 5.32903 36.1086 5.28312 36.0969 5.23918C36.0852 5.19524 36.0638 5.15436 36.0343 5.1194C36.0047 5.08444 35.9677 5.05626 35.9258 5.03684C35.8548 4.99952 35.7719 4.99014 35.6941 5.01061C35.6163 5.03108 35.5493 5.07987 35.5069 5.14704L33.0851 9.30439C30.3256 7.19779 26.9549 6.00508 23.4591 5.89837C19.9845 6.03299 16.6384 7.22325 13.8843 9.30439L11.5033 5.18711C11.4658 5.11224 11.4 5.05466 11.3198 5.0266C11.2397 4.99855 11.1516 5.00222 11.0741 5.03684C11.0049 5.08027 10.9548 5.14769 10.934 5.22567C10.9132 5.30364 10.9231 5.38644 10.9617 5.45759L13.4551 9.69508C11.4128 11.6285 10.2336 14.2754 10.1749 17.0581ZM27.8736 11.8489C27.8736 11.4504 28.0351 11.0682 28.3225 10.7864C28.61 10.5045 28.9998 10.3462 29.4064 10.3462C29.8129 10.3462 30.2028 10.5045 30.4902 10.7864C30.7777 11.0682 30.9391 11.4504 30.9391 11.8489C30.9391 12.2474 30.7777 12.6296 30.4902 12.9114C30.2028 13.1932 29.8129 13.3516 29.4064 13.3516C28.9998 13.3516 28.61 13.1932 28.3225 12.9114C28.0351 12.6296 27.8736 12.2474 27.8736 11.8489ZM16.49 11.8489C16.49 11.4504 16.6515 11.0682 16.939 10.7864C17.2264 10.5045 17.6163 10.3462 18.0228 10.3462C18.4293 10.3462 18.8192 10.5045 19.1067 10.7864C19.3941 11.0682 19.5556 11.4504 19.5556 11.8489C19.5556 12.2474 19.3941 12.6296 19.1067 12.9114C18.8192 13.1932 18.4293 13.3516 18.0228 13.3516C17.6163 13.3516 17.2264 13.1932 16.939 12.9114C16.6515 12.6296 16.49 12.2474 16.49 11.8489Z" fill="#A4C639"/>
</symbol><symbol id="apple-logo" viewBox="0 0 47 56">
<path d="M39.2449 29.7391C39.2544 32.1546 39.994 34.5143 41.3723 36.5268C42.7506 38.5393 44.7071 40.1162 47 41.0627C46.0779 43.8922 44.7301 46.5744 43.0003 49.0227C40.5985 52.4356 38.0949 55.8386 34.1562 55.9274C30.2176 56.0161 29.0676 53.708 24.6303 53.708C20.193 53.708 18.8292 55.8583 15.1654 55.9964C11.5016 56.1345 8.47889 52.2778 6.07705 48.8846C1.1207 41.98 -2.67543 29.246 2.41322 20.6842C3.60995 18.6123 5.34099 16.8769 7.43708 15.6476C9.53317 14.4183 11.9225 13.7373 14.3716 13.6711C18.0964 13.6021 21.6178 16.0976 23.8975 16.0976C26.1772 16.0976 30.4619 13.0892 34.9602 13.533C37.0437 13.6063 39.0815 14.1457 40.9142 15.1091C42.7468 16.0725 44.3247 17.4337 45.5243 19.0863C45.2495 19.254 39.2144 22.657 39.2754 29.7391H39.2449ZM31.9783 8.93654C34.1591 6.45976 35.2387 3.24645 34.9806 0C31.6761 0.302095 28.6167 1.81996 26.4317 4.2414C24.5692 6.33251 22.9307 9.68618 23.3785 12.9018C26.625 13.1484 29.9327 11.3038 31.9478 8.95627" fill="white"/>
</symbol><symbol id="microsoft-logo" viewBox="0 0 47 56">
<path d="M21.908 26.5238H1V7H21.908V26.5238Z" fill="#F05423"/>
<path d="M45 26.5238H24.092V7H45V26.5238Z" fill="#84C441"/>
<path d="M21.908 48H1V28.4762H21.908V48Z" fill="#2DABE2"/>
<path d="M45 48H24.092V28.4762H45V48Z" fill="#F9BC15"/>
</symbol></svg>