<svg width="48" height="44" viewBox="0 0 48 44" fill="none" xmlns="http://www.w3.org/2000/svg">
<g opacity="0.3">
<path d="M24 10C26.3734 10 28.6935 10.7038 30.6669 12.0224C32.6402 13.3409 34.1783 15.2151 35.0866 17.4078C35.9948 19.6005 36.2325 22.0133 35.7694 24.3411C35.3064 26.6689 34.1635 28.8071 32.4853 30.4853C30.8071 32.1635 28.6689 33.3064 26.3411 33.7694C24.0133 34.2324 21.6005 33.9948 19.4078 33.0866C17.2151 32.1783 15.3409 30.6402 14.0224 28.6668C12.7038 26.6935 12 24.3734 12 22C12 18.8174 13.2643 15.7652 15.5147 13.5147C17.7652 11.2643 20.8174 10 24 10ZM24 6C20.8355 6 17.7421 6.93838 15.1109 8.69649C12.4797 10.4546 10.4289 12.9534 9.21793 15.8771C8.00693 18.8007 7.69008 22.0177 8.30744 25.1214C8.92481 28.2251 10.4487 31.0761 12.6863 33.3137C14.9239 35.5513 17.7749 37.0752 20.8786 37.6926C23.9823 38.3099 27.1993 37.9931 30.1229 36.7821C33.0466 35.5711 35.5454 33.5203 37.3035 30.8891C39.0616 28.2579 40 25.1645 40 22C40 17.7565 38.3143 13.6869 35.3137 10.6863C32.3131 7.68571 28.2435 6 24 6Z" fill="currentColor"/>
<path d="M24 30.29C26.1536 30.1422 28.1708 29.1824 29.644 27.6046C31.1172 26.0268 31.9366 23.9486 31.9366 21.79C31.9366 19.6314 31.1172 17.5532 29.644 15.9754C28.1708 14.3976 26.1536 13.4378 24 13.29" fill="currentColor"/>
</g>
</svg>
